<?xml version="1.0" encoding="utf-8"?>
<!-- Generator: Adobe Illustrator 25.4.1, SVG Export Plug-In . SVG Version: 6.00 Build 0)  -->
<svg version="1.1" id="Слой_1" xmlns="http://www.w3.org/2000/svg" xmlns:xlink="http://www.w3.org/1999/xlink" x="0px" y="0px"
	 viewBox="0 0 1600 900" style="enable-background:new 0 0 1600 900;" xml:space="preserve">
<style type="text/css">
	.st0{fill:#D8B29F;}
</style>
<g>
	<path class="st0" d="M891,398.06c0.09,8.64,0.18,17.28,0.25,25.92c0.01,1.06-0.03,2.13-0.06,3.19c-0.01,0.38-0.26,0.66-0.53,0.88
		c-0.27,0.22-0.59,0.4-0.9,0.56c-3.45,1.82-6.91,3.63-10.37,5.44c-0.21,0.11-0.44,0.16-0.66,0.26c-0.48,0.2-1.06-0.08-1.08-0.52
		c-0.03-1.06-0.07-2.13-0.08-3.19c-0.08-16.1-0.16-32.2-0.24-48.29c-0.01-1.42-0.04-2.84-0.1-4.26c-0.02-0.49-0.27-0.93-0.66-1.2
		c-0.68-0.47-1.4-0.88-2.12-1.29c-11.56-6.71-23.13-13.41-34.69-20.12c-30.19-17.51-60.38-35.02-90.57-52.53
		c-0.82-0.47-1.62-0.98-2.43-1.47c-0.32-0.19-0.39-0.68-0.14-0.88c0.09-0.07,0.15-0.19,0.25-0.25c4.02-2.5,8.04-4.99,12.16-7.32
		c0.33-0.19,0.69-0.12,1.04-0.02c0.22,0.06,0.44,0.17,0.64,0.29c0.72,0.4,1.45,0.81,2.16,1.22c18.24,10.53,36.47,21.06,54.71,31.59
		c22.64,13.07,45.29,26.14,67.93,39.21c1.43,0.83,2.86,1.67,4.27,2.53c0.42,0.25,0.67,0.68,0.72,1.17c0.06,0.71,0.08,1.42,0.09,2.13
		c0.15,8.99,0.3,17.99,0.45,26.98C891.04,398.06,891.02,398.06,891,398.06z"/>
	<path class="st0" d="M709.74,559.75c0.06-2.13,0.12-4.26,0.18-6.39c0.01-0.46,0.6-0.78,1.04-0.56c0.53,0.26,1.07,0.51,1.58,0.8
		c4.43,2.5,8.86,5.01,13.28,7.51c10.5,5.94,21,11.89,31.5,17.82c0.93,0.52,1.86,1.04,2.8,1.54c0.57,0.3,1.16,0.21,1.7-0.07
		c0.73-0.38,1.44-0.82,2.16-1.23c8.69-5.06,17.37-10.13,26.06-15.19c31.99-18.65,63.97-37.3,95.96-55.95
		c1.12-0.65,2.25-1.3,3.39-1.93c0.7-0.39,1.38,0.03,1.47,0.89c0.03,0.24,0.06,0.47,0.08,0.71c0.02,0.24,0.04,0.47,0.05,0.71
		c0.13,2.48,0.32,4.96,0.58,7.43c0.15,1.41,0.31,2.83,0.17,4.25c-0.02,0.21-0.14,0.49-0.3,0.61c-0.57,0.42-1.17,0.81-1.78,1.16
		c-5.11,2.98-10.22,5.96-15.33,8.93c-36.73,21.33-73.45,42.65-110.18,63.97c-1.23,0.71-2.46,1.42-3.71,2.09
		c-0.43,0.23-0.93,0.21-1.37-0.01c-0.53-0.26-1.05-0.55-1.55-0.85c-15.33-9.18-30.65-18.36-45.97-27.55c-0.5-0.3-0.99-0.64-1.46-1
		c-0.17-0.14-0.32-0.38-0.36-0.59c-0.09-0.46-0.13-0.94-0.13-1.41c0.04-1.89,0.1-3.79,0.16-5.68
		C709.75,559.75,709.75,559.75,709.74,559.75z"/>
	<path class="st0" d="M679.26,340.37c0.28,0.11,0.63,0.19,0.94,0.37c2.27,1.28,4.52,2.57,6.79,3.86c1.34,0.76,2.71,1.46,3.97,2.33
		c0.25,0.17,0.24,0.67-0.02,0.88c-0.18,0.14-0.35,0.32-0.55,0.44c-0.91,0.56-1.82,1.1-2.73,1.65c-13.7,8.22-27.41,16.4-41.07,24.67
		c-5.12,3.1-4.24,1.35-4.22,7.36c0.09,38.23,0.22,76.46,0.35,114.69c0.03,9.35,0.11,18.7,0.15,28.05c0,0.94,0.13,1.9-0.16,2.82
		c-0.06,0.18-0.32,0.32-0.51,0.44c-0.08,0.05-0.24,0.02-0.35-0.02c-0.44-0.17-0.88-0.33-1.3-0.54c-3.28-1.63-6.56-3.27-9.84-4.91
		c-0.42-0.21-0.83-0.45-1.22-0.72c-0.29-0.2-0.5-0.51-0.52-0.88c-0.04-1.18-0.07-2.36-0.08-3.55c-0.03-14.32-0.04-28.64-0.07-42.97
		c-0.08-30.06-0.18-60.13-0.26-90.19c-0.01-3.79-0.02-7.58-0.02-11.36c0-0.71,0-1.42,0.06-2.13c0.04-0.48,0.28-0.91,0.7-1.18
		c0.69-0.45,1.39-0.9,2.1-1.32c4.58-2.71,9.17-5.41,13.76-8.11c10.4-6.13,20.79-12.25,31.19-18.38c0.71-0.42,1.44-0.82,2.17-1.2
		C678.71,340.39,678.97,340.41,679.26,340.37z"/>
	<path class="st0" d="M837.35,451.66c0.12,1.65,0.24,3.3,0.35,4.96c0.03,0.47,0.02,0.95-0.02,1.42c-0.03,0.35-0.16,0.67-0.45,0.93
		c-0.72,0.63-1.56,1.06-2.38,1.54c-6.41,3.79-12.83,7.57-19.25,11.35c-8.86,5.22-17.72,10.45-26.58,15.68
		c-0.61,0.36-1.21,0.74-1.77,1.17c-0.27,0.21-0.49,0.51-0.5,0.9c-0.01,0.59-0.07,1.18-0.07,1.77c-0.07,13.37-0.13,26.73-0.19,40.1
		c0,0.59,0.07,1.17,0.1,1.76c0.01,0.26,0.55,0.57,0.81,0.51c0.71-0.17,1.3-0.57,1.92-0.89c5.33-2.81,10.65-5.65,15.98-8.47
		c1.15-0.61,2.3-1.22,3.46-1.81c0.19-0.1,0.45-0.1,0.68-0.09c0.27,0.01,0.46,0.17,0.51,0.39c0.07,0.34,0.14,0.7,0.16,1.05
		c0.17,3.66,0.33,7.33,0.49,10.99c0.01,0.24,0.01,0.47,0.01,0.71c0.01,0.64-0.25,1.16-0.77,1.51c-0.49,0.33-1.02,0.6-1.53,0.89
		c-6.1,3.39-12.2,6.77-18.29,10.16c-4.75,2.64-9.5,5.29-14.26,7.92c-0.31,0.17-0.65,0.27-0.98,0.39c-0.28,0.1-0.78-0.19-0.8-0.46
		c-0.04-0.71-0.11-1.41-0.12-2.12c-0.06-5.8-0.1-11.59-0.17-17.39c-0.13-10.41-0.31-20.82-0.44-31.23
		c-0.09-7.1-0.12-14.19-0.17-21.29c-0.01-0.83,0.03-1.65,0.09-2.48c0.03-0.35,0.22-0.68,0.53-0.87c0.8-0.5,1.6-1,2.42-1.48
		c15.24-8.84,30.48-17.67,45.72-26.51c4.09-2.37,8.18-4.75,12.27-7.12c0.51-0.3,1.03-0.57,1.56-0.85c0.63-0.34,1.26-0.06,1.3,0.58
		c0.05,0.71,0.09,1.42,0.12,2.12c0.07,1.42,0.14,2.84,0.2,4.25C837.32,451.66,837.33,451.66,837.35,451.66z"/>
	<g>
		<path class="st0" d="M823.46,376.36c-0.06-0.1-0.12-0.2-0.19-0.29c-0.38-0.47-0.92-0.73-1.43-1.03
			c-5.37-3.24-10.74-6.48-16.1-9.73c-1.01-0.61-2-1.26-2.99-1.91c-0.33-0.21-0.39-0.68-0.14-0.87c0.09-0.07,0.17-0.16,0.26-0.24
			c0.09-0.08,0.18-0.15,0.28-0.21c3.38-1.95,6.76-3.9,10.15-5.85c0.2-0.12,0.43-0.21,0.66-0.27c0.34-0.09,0.7-0.16,1.04,0.02
			c0.73,0.38,1.48,0.75,2.19,1.16c7.37,4.28,14.73,8.56,22.1,12.84c3.27,1.9,6.55,3.8,9.82,5.71c0.41,0.24,0.84,0.45,1.11,0.86
			c0.16,0.23,0.14,0.46-0.02,0.63c-0.6,0.59-1.37,0.93-2.08,1.34c-7.18,4.14-14.36,8.27-21.54,12.4
			c-12.72,7.32-25.44,14.64-38.16,21.95c-1.23,0.71-2.46,1.41-3.72,2.08c-0.43,0.23-0.93,0.25-1.37,0.02
			c-0.84-0.43-1.67-0.89-2.49-1.36c-10.75-6.22-21.5-12.45-32.25-18.68c-8.5-4.92-17-9.84-25.49-14.78
			c-0.61-0.35-1.26-0.64-1.78-1.15c-0.25-0.25-0.28-0.69,0-0.87c0.2-0.13,0.38-0.29,0.58-0.41c3.47-2.03,6.95-4.06,10.42-6.08
			c0.89-0.72,1.71-0.47,2.61,0.06c4.17,2.47,8.37,4.91,12.56,7.36c11.03,6.46,22.05,12.93,33.07,19.39
			c0.61,0.36,1.23,0.71,1.85,1.05c0.54,0.29,1.08,0.44,1.67,0.08c0.5-0.31,1.04-0.56,1.55-0.86c12.08-7.01,24.15-14.02,36.22-21.04
			c0.51-0.3,1.06-0.53,1.42-1.03C823.34,376.56,823.39,376.46,823.46,376.36z"/>
	</g>
	<path class="st0" d="M733.2,356.28c-0.11,0.03-0.24,0.03-0.34,0.08c-0.84,0.44-1.69,0.86-2.51,1.33
		c-11.72,6.68-23.43,13.36-35.15,20.04c-7.91,4.51-15.83,9.02-23.75,13.53c-0.62,0.35-1.24,0.69-1.88,1
		c-0.33,0.16-0.7,0.11-1.03-0.01c-0.22-0.08-0.43-0.21-0.62-0.34c-3.62-2.47-7.23-4.94-10.84-7.42c-0.19-0.13-0.34-0.32-0.46-0.52
		c-0.14-0.23-0.12-0.5,0.06-0.63c0.47-0.35,0.96-0.69,1.46-0.98c8.61-4.95,17.23-9.9,25.85-14.85
		c15.08-8.66,30.17-17.31,45.25-25.96c1.03-0.59,2.06-1.16,3.1-1.71c0.44-0.23,0.93-0.21,1.37,0.02c0.84,0.44,1.67,0.9,2.49,1.37
		c15.91,9.12,31.82,18.24,47.72,27.37c3.9,2.24,7.8,4.48,11.69,6.73c0.3,0.17,0.54,0.44,0.8,0.68c0.23,0.21,0.2,0.42-0.02,0.61
		c-0.18,0.15-0.32,0.36-0.51,0.48c-3.67,2.38-7.35,4.75-11.03,7.12c-0.2,0.13-0.42,0.22-0.63,0.32c-0.46,0.2-0.93,0.18-1.37-0.05
		c-0.53-0.27-1.05-0.55-1.56-0.84c-5.03-2.88-10.05-5.77-15.08-8.66c-9.95-5.71-19.9-11.43-29.86-17.14
		c-0.92-0.53-1.87-1.01-2.81-1.5C733.45,356.27,733.32,356.29,733.2,356.28z"/>
	<path class="st0" d="M722.8,475.43c0.04,10.66,0.08,21.31,0.11,31.97c0,1.18,0.08,2.36-0.09,3.54c-0.06,0.45-0.64,0.76-1.07,0.56
		c-0.21-0.1-0.43-0.18-0.64-0.3c-3.33-1.8-6.66-3.61-9.98-5.42c-0.1-0.06-0.2-0.13-0.3-0.19c-0.51-0.33-0.9-0.75-0.91-1.41
		c-0.01-1.07-0.04-2.13-0.05-3.2c-0.06-10.89-0.11-21.78-0.17-32.68c-0.03-5.8-0.09-11.6-0.14-17.4c-0.01-0.95-0.05-1.89-0.11-2.84
		c-0.03-0.49-0.29-0.89-0.7-1.17c-0.39-0.27-0.78-0.53-1.19-0.77c-2.13-1.28-4.26-2.56-6.39-3.84
		c-9.65-5.77-19.29-11.54-28.94-17.31c-0.61-0.36-1.17-0.83-1.9-0.92c-0.2-0.02-0.48,0.09-0.61,0.24c-0.13,0.16-0.16,0.44-0.17,0.67
		c-0.04,1.18-0.06,2.37-0.08,3.55c-0.08,6.16-0.17,12.31-0.43,18.46c-0.03,0.71-0.11,1.41-0.17,2.12c-0.03,0.3-0.53,0.64-0.79,0.53
		c-0.32-0.14-0.66-0.25-0.97-0.41c-3.36-1.74-6.72-3.49-10.08-5.24c-0.31-0.16-0.6-0.37-0.89-0.58c-0.3-0.22-0.45-0.56-0.49-0.91
		c-0.06-0.47-0.07-0.94-0.07-1.42c0.1-12.67,0.2-25.34,0.3-38c0-0.24,0.01-0.47,0.02-0.71c0.03-1.12,0.55-1.37,1.64-0.76
		c0.83,0.46,1.64,0.94,2.46,1.42c8.08,4.7,16.16,9.4,24.25,14.09c11.77,6.84,23.54,13.67,35.3,20.51c0.92,0.53,1.89,0.99,2.7,1.69
		c0.19,0.17,0.33,0.33,0.34,0.59c0.04,1.06,0.11,2.13,0.11,3.19c0.03,7.58,0.04,15.15,0.06,22.73c0.01,3.2,0,6.39,0,9.59
		C722.79,475.43,722.79,475.43,722.8,475.43z"/>
	<path class="st0" d="M681.84,484.07c0.11-11.48,0.22-22.96,0.33-34.45c0-0.47,0.07-0.94,0.09-1.41c0.02-0.28,0.53-0.61,0.79-0.51
		c0.11,0.04,0.24,0.04,0.34,0.09c3.89,2.26,7.77,4.52,11.65,6.79c0.2,0.12,0.39,0.26,0.57,0.42c0.27,0.24,0.46,0.58,0.49,0.92
		c0.07,0.94,0.09,1.89,0.09,2.84c0.07,12.07,0.13,24.15,0.19,36.22c0.03,5.21,0.04,10.42,0.07,15.63c0,0.59,0.02,1.18,0.05,1.77
		c0.03,0.49,0.21,0.93,0.64,1.2c0.8,0.5,1.61,1,2.43,1.47c13.87,7.92,27.75,15.83,41.62,23.74c5.34,3.05,10.69,6.1,16.03,9.15
		c0.82,0.47,1.63,0.96,2.43,1.47c0.43,0.27,0.62,0.69,0.65,1.19c0.01,0.12,0.03,0.24,0.03,0.35c-0.08,4.14-0.15,8.28-0.24,12.43
		c-0.01,0.34-0.11,0.7-0.24,1.02c-0.1,0.24-0.35,0.34-0.57,0.29c-0.23-0.05-0.46-0.12-0.66-0.22c-0.73-0.39-1.46-0.79-2.18-1.2
		c-23.74-13.54-47.48-27.09-71.21-40.64c-1.03-0.59-2.03-1.21-3.05-1.81c-0.33-0.2-0.5-0.53-0.52-0.88
		c-0.05-0.94-0.07-1.89-0.07-2.84c0.06-11.01,0.14-22.02,0.2-33.03C681.8,484.07,681.82,484.07,681.84,484.07z"/>
	<path class="st0" d="M864.9,432.67c0.03,10.08,0.08,23.21,0.12,36.34c0,1.18-0.01,2.36-0.06,3.55c-0.02,0.49-0.3,0.9-0.72,1.16
		c-0.8,0.51-1.61,1-2.42,1.47c-13.59,7.91-27.19,15.82-40.78,23.73c-5.72,3.33-11.45,6.66-17.17,9.98c-0.71,0.41-1.39,0.93-2.21,1.1
		c-0.18,0.04-0.42-0.13-0.61-0.25c-0.07-0.05-0.1-0.22-0.1-0.33c-0.2-4.13-0.4-8.27-0.6-12.4c-0.01-0.12,0.01-0.24,0.02-0.35
		c0.02-0.5,0.2-0.94,0.62-1.21c0.79-0.51,1.6-1.01,2.42-1.47c7.61-4.31,15.23-8.62,22.85-12.93c7.1-4.02,14.2-8.04,21.3-12.07
		c0.92-0.52,1.83-1.08,2.72-1.66c0.17-0.11,0.32-0.38,0.35-0.59c0.09-0.7,0.14-1.41,0.15-2.12c0.16-11.24,0.34-22.48,0.47-33.72
		c0.14-12.07,0.25-24.13,0.37-36.2c0.01-0.59,0.01-1.18,0.03-1.77c0.01-0.51,0.27-0.89,0.65-1.2c0.18-0.15,0.41-0.24,0.62-0.35
		c3.35-1.76,6.7-3.52,10.06-5.26c0.31-0.16,0.67-0.23,1-0.34c0.27-0.09,0.75,0.25,0.76,0.54c0.03,0.94,0.08,1.89,0.09,2.83
		C864.84,402.64,864.86,416.13,864.9,432.67z"/>
	<path class="st0" d="M734.09,308.49c0.31,0.05,0.57,0.04,0.77,0.14c0.94,0.49,1.87,1.01,2.79,1.54
		c11.48,6.58,22.96,13.16,34.44,19.74c8.71,4.99,17.43,9.99,26.13,14.99c0.82,0.47,1.6,1,2.39,1.5c0.26,0.16,0.27,0.74,0.04,0.94
		c-0.18,0.15-0.33,0.34-0.52,0.47c-3.64,2.42-7.29,4.83-10.94,7.24c-0.19,0.13-0.42,0.23-0.64,0.3c-0.34,0.12-0.71,0.15-1.03-0.02
		c-0.83-0.44-1.66-0.89-2.48-1.37c-10.99-6.48-21.99-12.96-32.98-19.44c-9.57-5.64-19.14-11.28-28.7-16.92
		c-0.6-0.36-1.27-0.64-1.72-1.22c-0.18-0.23-0.19-0.44,0-0.61c0.17-0.16,0.34-0.34,0.54-0.46c3.66-2.17,7.32-4.33,10.99-6.48
		C733.47,308.66,733.83,308.59,734.09,308.49z"/>
	<path class="st0" d="M655.27,497.86c0.09-11.36,0.17-22.71,0.26-34.07c0.01-1.06,0.08-2.12,0.14-3.18
		c0.02-0.47,0.66-0.79,1.06-0.54c4.15,2.51,8.29,5.03,12.31,7.73c0.2,0.14,0.32,0.33,0.36,0.58c0.04,0.23,0.1,0.46,0.1,0.7
		c0.02,0.71,0.02,1.42,0.02,2.13c-0.12,17.86-0.23,35.73-0.36,53.59c-0.04,5.44-0.12,10.88-0.19,16.32
		c-0.01,0.59,0.05,1.18-0.19,1.75c-0.1,0.22-0.27,0.4-0.54,0.35c-0.34-0.06-0.68-0.17-0.98-0.34c-1.54-0.88-3.07-1.78-4.6-2.68
		c-1.94-1.13-3.88-2.26-5.82-3.4c-0.41-0.24-0.81-0.49-1.18-0.79c-0.27-0.22-0.5-0.52-0.51-0.9c-0.04-1.06-0.07-2.13-0.07-3.19
		c0.05-9.94,0.11-19.87,0.17-29.81C655.27,500.69,655.26,499.28,655.27,497.86C655.26,497.86,655.27,497.86,655.27,497.86z"/>
	<path class="st0" d="M824.35,520.68c0-1.67-0.01-3.8,0.01-5.93c0-0.34,0.15-0.68,0.49-0.89c0.3-0.19,0.58-0.42,0.88-0.6
		c0.6-0.37,1.22-0.73,1.83-1.09c20.13-11.98,40.26-23.96,60.39-35.93c0.6-0.36,1.18-0.79,1.89-0.96c0.28-0.07,0.76,0.16,0.84,0.47
		c0.06,0.23,0.15,0.45,0.18,0.68c0.06,0.59,0.1,1.18,0.12,1.77c0.15,3.43,0.27,6.86,0.58,10.28c0.03,0.35,0.03,0.71,0,1.06
		c-0.03,0.36-0.19,0.69-0.5,0.89c-0.69,0.46-1.38,0.91-2.1,1.32c-6.25,3.62-12.5,7.22-18.74,10.83c-13.83,8-27.65,16-41.47,23.99
		c-1.02,0.59-2.06,1.16-3.1,1.73c-0.57,0.31-1.15-0.08-1.18-0.78c-0.02-0.35-0.03-0.71-0.04-1.06
		C824.4,524.69,824.38,522.92,824.35,520.68z"/>
	<path class="st0" d="M810.82,430.33c0.06,3.54,0.12,7.08,0.17,10.62c0.01,0.59,0.02,1.18-0.03,1.77c-0.04,0.48-0.28,0.9-0.71,1.16
		c-0.3,0.18-0.62,0.34-0.94,0.5c-3.72,1.78-7.39,3.66-11.19,5.29c-0.25,0.11-0.78-0.19-0.81-0.44c-0.03-0.23-0.1-0.46-0.11-0.69
		c-0.02-0.47-0.02-0.94-0.02-1.42c0.06-6.96,0.11-13.92,0.17-20.88c0.01-0.59,0.02-1.18,0.06-1.77c0.03-0.51,0.32-0.9,0.72-1.15
		c3.75-2.23,7.51-4.44,11.27-6.65c0.36-0.21,1.03,0.16,1.07,0.59c0.06,0.82,0.15,1.64,0.17,2.47c0.08,3.54,0.13,7.08,0.2,10.62
		C810.83,430.33,810.82,430.33,810.82,430.33z"/>
	<path class="st0" d="M837.78,414.92c0.12,3.43,0.24,6.85,0.36,10.28c0.02,0.59,0.04,1.18,0.01,1.77c-0.02,0.5-0.3,0.88-0.7,1.17
		c-0.1,0.07-0.18,0.15-0.29,0.21c-3.73,2.06-7.45,4.11-11.18,6.16c-0.2,0.11-0.44,0.15-0.66,0.23c-0.26,0.09-0.76-0.23-0.78-0.52
		c-0.03-0.35-0.09-0.7-0.1-1.06c-0.06-7.45-0.12-14.9-0.17-22.35c0-0.47,0.05-0.94,0.08-1.41c0.02-0.25,0.12-0.46,0.31-0.61
		c0.28-0.22,0.54-0.47,0.84-0.65c3.43-2.09,6.87-4.18,10.31-6.26c0.2-0.12,0.44-0.15,0.66-0.24c0.24-0.1,0.77,0.24,0.8,0.52
		c0.07,0.59,0.16,1.17,0.19,1.76c0.14,3.66,0.27,7.33,0.4,10.99C837.83,414.92,837.81,414.92,837.78,414.92z"/>
	<path class="st0" d="M759.6,495.4c-0.07,1.83,0.12,3.96-0.11,6.08c-0.03,0.3-0.51,0.55-0.82,0.43c-0.11-0.04-0.24-0.05-0.34-0.1
		c-0.32-0.16-0.64-0.31-0.94-0.49c-6.34-3.69-12.67-7.37-19.01-11.06c-0.31-0.18-0.6-0.38-0.9-0.56c-0.54-0.33-0.84-0.8-0.92-1.43
		c-0.01-0.12-0.03-0.24-0.03-0.35c0-3.9,0-7.81,0.01-11.71c0-0.23,0.08-0.46,0.12-0.69c0.04-0.26,0.58-0.53,0.83-0.41
		c0.42,0.2,0.86,0.38,1.27,0.62c6.35,3.66,12.7,7.33,19.05,11c0.41,0.24,0.81,0.49,1.19,0.78c0.28,0.21,0.52,0.5,0.52,0.87
		c0.03,1.54,0.05,3.07,0.07,4.61C759.61,493.68,759.6,494.39,759.6,495.4z"/>
	<path class="st0" d="M722.6,423.06c-0.23-0.06-0.47-0.09-0.67-0.19c-0.42-0.21-0.82-0.46-1.22-0.71c-2.71-1.67-5.42-3.34-8.12-5.02
		c-0.4-0.25-0.77-0.54-1.16-0.8c-0.25-0.17-0.28-0.75-0.05-0.93c0.18-0.14,0.35-0.32,0.55-0.43c6.71-3.93,13.43-7.85,20.15-11.76
		c0.2-0.12,0.43-0.2,0.64-0.29c0.46-0.2,0.92-0.12,1.37,0.06c0.11,0.04,0.22,0.09,0.32,0.15c3.42,2.08,6.85,4.16,10.27,6.25
		c0.42,0.26,0.42,0.89,0,1.15c-0.3,0.19-0.59,0.39-0.89,0.57c-0.81,0.48-1.62,0.96-2.44,1.43c-5.5,3.2-11,6.41-16.5,9.61
		c-0.51,0.29-1.03,0.57-1.57,0.81C723.08,423.04,722.83,423.02,722.6,423.06z"/>
	<path class="st0" d="M717.98,394.5c0.02,0.11,0.08,0.25,0.04,0.32c-0.24,0.42-0.65,0.68-1.05,0.92
		c-6.46,3.93-12.93,7.86-19.4,11.78c-0.2,0.12-0.41,0.23-0.63,0.32c-0.34,0.13-0.69,0.16-1.04,0.04c-0.22-0.08-0.45-0.16-0.64-0.29
		c-3.2-2.22-6.4-4.45-9.6-6.69c-0.31-0.22-0.35-0.69-0.11-0.9c0.18-0.15,0.33-0.35,0.52-0.47c6.15-3.99,12.3-7.98,18.45-11.96
		c0.19-0.13,0.43-0.22,0.65-0.26c0.22-0.04,0.47-0.04,0.69,0c0.23,0.04,0.46,0.13,0.66,0.24c3.69,2.12,7.37,4.25,11.05,6.4
		C717.75,394.05,717.85,394.31,717.98,394.5z"/>
	<path class="st0" d="M759.59,527.23c-0.07,1.64,0.14,3.77-0.12,5.89c-0.18,0.12-0.36,0.32-0.56,0.34
		c-0.21,0.03-0.47-0.08-0.67-0.19c-0.62-0.34-1.24-0.69-1.85-1.05c-5.69-3.38-11.38-6.77-17.07-10.15c-0.71-0.42-1.4-0.88-2.11-1.31
		c-0.33-0.21-0.44-0.54-0.52-0.89c-0.05-0.23-0.07-0.47-0.05-0.7c0.16-2.95,0.31-5.91,0.49-8.86c0.05-0.82,0.08-1.65,0.31-2.46
		c0.1-0.34,0.51-0.63,0.79-0.51c0.22,0.09,0.46,0.12,0.66,0.24c6.53,3.82,13.06,7.65,19.58,11.49c0.3,0.18,0.56,0.43,0.83,0.66
		c0.08,0.07,0.15,0.19,0.16,0.29c0.05,0.35,0.11,0.7,0.12,1.05C759.6,522.96,759.59,524.85,759.59,527.23z"/>
	<path class="st0" d="M707.13,324.27c0.22,0.08,0.46,0.12,0.66,0.24c3.6,2.27,7.2,4.55,10.8,6.83c0.1,0.06,0.16,0.17,0.25,0.24
		c0.24,0.19,0.26,0.77,0.02,0.93c-0.1,0.06-0.17,0.17-0.27,0.23c-3.75,2.26-7.5,4.52-11.25,6.77c-0.56,0.34-1.14,0.24-1.68-0.08
		c-3.83-2.34-7.75-4.55-11.48-7.06c-0.28-0.19-0.29-0.74-0.03-0.92c0.1-0.07,0.18-0.15,0.28-0.22c0.1-0.07,0.2-0.13,0.3-0.19
		c3.9-2.23,7.8-4.46,11.71-6.67C706.63,324.27,706.9,324.3,707.13,324.27z"/>
	<path class="st0" d="M891.83,454.36c0.03,0.59,0.06,1.18,0.11,1.76c0.25,3.43,0.47,3.07-2.49,4.59c-2.82,1.46-5.63,2.95-8.45,4.42
		c-0.41,0.22-0.86,0.37-1.29,0.56c-0.28,0.12-0.76-0.11-0.83-0.4c-0.06-0.23-0.15-0.45-0.19-0.68c-0.07-0.46-0.14-0.93-0.18-1.4
		c-0.23-3.29-0.41-6.58-0.79-9.86c-0.05-0.47-0.05-0.94,0.15-1.38c0.05-0.11,0.09-0.22,0.17-0.31c0.08-0.08,0.18-0.15,0.29-0.19
		c1.1-0.43,2.09-1.07,3.09-1.69c2.41-1.48,4.8-2.98,7.21-4.46c0.5-0.31,1.03-0.56,1.55-0.84c0.26-0.14,0.78,0.11,0.82,0.38
		c0.31,2.45,0.53,4.91,0.71,7.38C891.77,452.95,891.8,453.65,891.83,454.36C891.84,454.36,891.84,454.36,891.83,454.36z"/>
	<path class="st0" d="M682.35,544.78c0.04-2.12,0.08-4.24,0.12-6.36c0.01-0.3,0.46-0.62,0.74-0.55c0.11,0.03,0.24,0.02,0.35,0.06
		c0.22,0.09,0.43,0.18,0.64,0.3c3.46,2.03,6.91,4.06,10.37,6.09c0.3,0.18,0.6,0.38,0.87,0.6c0.38,0.32,0.56,0.74,0.58,1.24
		c0,0.12,0.02,0.24,0.01,0.35c-0.28,4-0.54,8-1.04,11.98c-0.06,0.47-0.62,0.73-1.07,0.46c-3.54-2.12-7.08-4.24-10.61-6.36
		c-0.2-0.12-0.34-0.33-0.52-0.48c-0.19-0.16-0.31-0.36-0.32-0.6c-0.03-0.47-0.08-0.94-0.08-1.41c-0.01-1.77,0-3.54,0-5.31
		C682.37,544.78,682.36,544.78,682.35,544.78z"/>
</g>
</svg>
